<?xml version="1.0" encoding="utf-8" ?>	<!-- Generator: Assembly 2.4 - http://assemblyapp.co -->	<svg version="1.1" xmlns="http://www.w3.org/2000/svg" xmlns:xlink="http://www.w3.org/1999/xlink" width="30vh" height="10vh" viewBox="0 0 4096.0 2341.0">		<g id="document" transform="scale(13.653333333333334 13.653333333333334) translate(150.0 85.71428571428571)">			<g>				<path d="M-103.269,-3.47494 C-100.311,-3.47494 -97.9236,-5.91429 -97.8717,-8.82076 L-97.8717,-43.0755 C-97.8717,-46.0339 -100.259,-48.4732 -103.269,-48.4732 L-137.524,-48.4732 C-140.483,-48.4732 -142.922,-46.0858 -142.922,-43.0755 L-142.922,-8.87266 C-142.922,-5.91429 -140.534,-3.47494 -137.524,-3.47494 L-103.269,-3.47494 Z " fill="#a9a9a9" fill-opacity="1.00" />				<path d="M-55.1107,-3.47494 C-52.1523,-3.47494 -49.7649,-5.91429 -49.713,-8.82076 L-49.713,-43.0755 C-49.713,-46.0339 -52.1004,-48.4732 -55.1107,-48.4732 L-89.3654,-48.4732 C-92.3238,-48.4732 -94.7632,-46.0858 -94.7632,-43.0755 L-94.7632,-8.87266 C-94.7632,-5.91429 -92.3757,-3.47494 -89.3654,-3.47494 L-55.1107,-3.47494 Z " fill="#3cb44b" fill-opacity="1.00" />				<path d="M-6.95198,-3.47494 C-3.99362,-3.47494 -1.60617,-5.91429 -1.55427,-8.82076 L-1.55427,-43.0755 C-1.55427,-46.0339 -3.94172,-48.4732 -6.95198,-48.4732 L-41.2067,-48.4732 C-44.1651,-48.4732 -46.6044,-46.0858 -46.6044,-43.0755 L-46.6044,-8.87266 C-46.6044,-5.91429 -44.217,-3.47494 -41.2067,-3.47494 L-6.95198,-3.47494 Z " fill="#ffa538" fill-opacity="1.00" />				<path d="M41.2067,-3.47494 C44.1651,-3.47494 46.5525,-5.91429 46.6044,-8.82076 L46.6044,-43.0755 C46.6044,-46.0339 44.217,-48.4732 41.2067,-48.4732 L6.95198,-48.4732 C3.99362,-48.4732 1.55427,-46.0858 1.55427,-43.0755 L1.55427,-8.87266 C1.55427,-5.91429 3.94172,-3.47494 6.95198,-3.47494 L41.2067,-3.47494 Z " fill="#ffa538" fill-opacity="1.00" />				<path d="M89.3654,-3.47494 C92.3238,-3.47494 94.7113,-5.91429 94.7632,-8.82076 L94.7632,-43.0755 C94.7632,-46.0339 92.3757,-48.4732 89.3654,-48.4732 L55.1107,-48.4732 C52.1523,-48.4732 49.713,-46.0858 49.713,-43.0755 L49.713,-8.87266 C49.713,-5.91429 52.1004,-3.47494 55.1107,-3.47494 L89.3654,-3.47494 Z " fill="#a9a9a9" fill-opacity="1.00" />				<path d="M-103.269,48.2635 C-100.311,48.2635 -97.9236,45.8242 -97.8717,42.9177 L-97.8717,8.66299 C-97.8717,5.70462 -100.259,3.26527 -103.269,3.26527 L-137.524,3.26527 C-140.483,3.26527 -142.922,5.65272 -142.922,8.66299 L-142.922,42.8658 C-142.922,45.8242 -140.534,48.2635 -137.524,48.2635 L-103.269,48.2635 Z " fill="#3cb44b" fill-opacity="1.00" />				<path d="M-55.1107,48.2635 C-52.1523,48.2635 -49.7649,45.8242 -49.713,42.9177 L-49.713,8.66299 C-49.713,5.70462 -52.1004,3.26527 -55.1107,3.26527 L-89.3654,3.26527 C-92.3238,3.26527 -94.7632,5.65272 -94.7632,8.66299 L-94.7632,42.8658 C-94.7632,45.8242 -92.3757,48.2635 -89.3654,48.2635 L-55.1107,48.2635 Z " fill="#3cb44b" fill-opacity="1.00" />				<path d="M-6.95198,48.2635 C-3.99362,48.2635 -1.60617,45.8242 -1.55427,42.9177 L-1.55427,8.66299 C-1.55427,5.70462 -3.94172,3.26527 -6.95198,3.26527 L-41.2067,3.26527 C-44.1651,3.26527 -46.6044,5.65272 -46.6044,8.66299 L-46.6044,42.8658 C-46.6044,45.8242 -44.217,48.2635 -41.2067,48.2635 L-6.95198,48.2635 Z " fill="#3cb44b" fill-opacity="1.00" />				<path d="M41.2067,48.2635 C44.1651,48.2635 46.5525,45.8242 46.6044,42.9177 L46.6044,8.66299 C46.6044,5.70462 44.217,3.26527 41.2067,3.26527 L6.95198,3.26527 C3.99362,3.26527 1.55427,5.65272 1.55427,8.66299 L1.55427,42.8658 C1.55427,45.8242 3.94172,48.2635 6.95198,48.2635 L41.2067,48.2635 Z " fill="#3cb44b" fill-opacity="1.00" />				<path d="M89.3654,48.2635 C92.3238,48.2635 94.7113,45.8242 94.7632,42.9177 L94.7632,8.66299 C94.7632,5.70462 92.3757,3.26527 89.3654,3.26527 L55.1107,3.26527 C52.1523,3.26527 49.713,5.65272 49.713,8.66299 L49.713,42.8658 C49.713,45.8242 52.1004,48.2635 55.1107,48.2635 L89.3654,48.2635 Z " fill="#3cb44b" fill-opacity="1.00" />				<path d="M137.524,-3.26527 C140.483,-3.26527 142.87,-5.70462 142.922,-8.61109 L142.922,-42.8658 C142.922,-45.8242 140.534,-48.2635 137.524,-48.2635 L103.269,-48.2635 C100.311,-48.2635 97.8717,-45.8761 97.8717,-42.8658 L97.8717,-8.66299 C97.8717,-5.70462 100.259,-3.26527 103.269,-3.26527 L137.524,-3.26527 Z " fill="#a9a9a9" fill-opacity="1.00" />				<path d="M137.524,48.4732 C140.483,48.4732 142.87,46.0339 142.922,43.1274 L142.922,8.87266 C142.922,5.91429 140.534,3.47494 137.524,3.47494 L103.269,3.47494 C100.311,3.47494 97.8717,5.86239 97.8717,8.87266 L97.8717,43.0755 C97.8717,46.0339 100.259,48.4732 103.269,48.4732 L137.524,48.4732 Z " fill="#3cb44b" fill-opacity="1.00" />				<path d="M-132.206,-14.0961 L-128.466,-14.0961 L-128.466,-32.5537 L-128.362,-32.5537 L-122.44,-14.0961 L-118.942,-14.0961 L-112.986,-32.5537 L-112.847,-32.5537 L-112.847,-14.0961 L-108.588,-14.0961 L-108.588,-37.8521 L-114.544,-37.8521 L-120.328,-19.9485 L-120.431,-19.9485 L-126.215,-37.8521 L-132.206,-37.8521 L-132.206,-14.0961 Z " fill="#ffffff" fill-opacity="1.00" />				<path d="M-72.342,-13.0052 C-65.9008,-13.0052 -61.4682,-17.1954 -61.4682,-24.8832 L-61.4682,-25.6451 C-61.4682,-33.5753 -65.7969,-37.5231 -72.1342,-37.5231 C-78.6099,-37.5231 -83.0079,-33.2983 -83.0079,-25.6451 L-83.0079,-24.8832 C-83.0079,-17.0223 -78.7485,-13.0052 -72.342,-13.0052 Z M-72.2034,-16.2951 C-76.7399,-16.2951 -78.4714,-19.5503 -78.4714,-24.9179 L-78.4714,-26.1299 C-78.4714,-30.9435 -76.4629,-34.1986 -72.342,-34.1986 C-67.7362,-34.164 -66.0047,-30.9435 -66.0047,-25.6105 L-66.0047,-24.4331 C-66.0047,-19.5849 -68.0479,-16.2951 -72.2034,-16.2951 Z " fill="#ffffff" fill-opacity="1.00" />				<path d="M-33.9315,-12.6762 L-26.1052,-12.6762 C-18.4866,-12.6762 -14.7813,-16.8665 -14.7813,-24.485 L-14.7813,-25.1776 C-14.7813,-32.9347 -18.8676,-36.4323 -26.1398,-36.4323 L-33.9315,-36.4323 L-33.9315,-12.6762 Z M-29.6721,-16.0353 L-29.6721,-33.0732 L-26.3822,-33.0732 C-21.8804,-33.0732 -19.2831,-31.2032 -19.2831,-25.2122 L-19.2831,-24.0694 C-19.2831,-18.3209 -21.4302,-16.0353 -26.0706,-16.0353 L-29.6721,-16.0353 Z " fill="#ffffff" fill-opacity="1.00" />				<path d="M16.5647,-13.3862 L31.594,-13.3862 L31.594,-16.7452 L20.8242,-16.7452 L20.8242,-23.9482 L29.0314,-23.9482 L29.0314,-27.2727 L20.8242,-27.2727 L20.8242,-33.7831 L31.3862,-33.7831 L31.3862,-37.1422 L16.5647,-37.1422 L16.5647,-13.3862 Z " fill="#ffffff" fill-opacity="1.00" />				<path d="M71.5455,-12.278 C77.294,-12.278 80.0298,-15.083 80.0298,-19.5849 C80.0298,-23.8097 77.7788,-25.3681 74.0388,-26.4416 L71.8225,-27.1342 C69.4677,-27.7921 68.7751,-28.5886 68.7751,-30.4586 C68.7751,-32.3633 70.1603,-33.4022 72.6536,-33.4022 C75.2855,-33.4022 77.2248,-32.8481 78.7138,-32.2248 L78.7138,-35.5492 C77.3979,-36.2418 75.701,-36.8305 72.5844,-36.8305 C67.2168,-36.8305 64.6195,-34.0948 64.6195,-30.0777 C64.6195,-26.0607 66.6627,-24.2599 70.0218,-23.3249 L72.2727,-22.7016 C74.8699,-21.9051 75.7357,-21.1432 75.7357,-19.1693 C75.7357,-17.0223 74.3851,-15.7064 71.1992,-15.7064 C68.6019,-15.7064 66.351,-16.3297 64.4464,-17.1608 L64.4464,-13.8017 C66.074,-12.936 68.4288,-12.278 71.5455,-12.278 Z " fill="#ffffff" fill-opacity="1.00" />				<path d="M118.579,-13.1784 L122.838,-13.1784 L122.838,-33.5753 L129.591,-33.5753 L129.591,-36.9344 L111.757,-36.9344 L111.757,-33.5753 L118.579,-33.5753 L118.579,-13.1784 Z " fill="#ffffff" fill-opacity="1.00" />				<path d="M-129.556,37.8521 L-125.366,37.8521 L-120.657,20.6065 L-120.553,20.6065 L-115.912,37.8521 L-111.687,37.8521 L-105.87,14.0961 L-109.713,14.0961 L-113.8,31.688 L-113.904,31.688 L-118.683,14.0961 L-122.146,14.0961 L-126.994,31.688 L-127.098,31.688 L-131.149,14.0961 L-135.478,14.0961 L-129.556,37.8521 Z " fill="#ffffff" fill-opacity="1.00" />				<path d="M-72.619,38.9429 C-66.1779,38.9429 -61.7452,34.7527 -61.7452,27.0649 L-61.7452,26.3031 C-61.7452,18.3728 -66.074,14.4251 -72.4112,14.4251 C-78.887,14.4251 -83.285,18.6499 -83.285,26.3031 L-83.285,27.0649 C-83.285,34.9259 -79.0255,38.9429 -72.619,38.9429 Z M-72.4805,35.6531 C-77.017,35.6531 -78.7485,32.3979 -78.7485,27.0303 L-78.7485,25.8182 C-78.7485,21.0047 -76.7399,17.7495 -72.619,17.7495 C-68.0132,17.7841 -66.2817,21.0047 -66.2817,26.3377 L-66.2817,27.5151 C-66.2817,32.3633 -68.3249,35.6531 -72.4805,35.6531 Z " fill="#ffffff" fill-opacity="1.00" />				<path d="M-33.2736,39.9818 L-29.0141,39.9818 L-29.0141,30.3894 L-25.378,30.3894 L-20.0796,39.9818 L-15.4392,39.9818 L-21.3263,29.489 L-21.3263,29.3159 C-18.6598,28.277 -17.0322,26.5108 -17.0322,23.1864 C-17.0322,18.546 -19.8372,16.2258 -25.3087,16.2258 L-33.2736,16.2258 L-33.2736,39.9818 Z M-29.0141,27.4458 L-29.0141,19.5156 L-25.7935,19.5156 C-22.7461,19.5156 -21.4302,20.6238 -21.4302,23.3249 C-21.4302,26.0953 -22.6769,27.4458 -25.7589,27.4458 L-29.0141,27.4458 Z " fill="#ffffff" fill-opacity="1.00" />				<path d="M14.2272,38.562 L22.0535,38.562 C29.6721,38.562 33.3774,34.3718 33.3774,26.7532 L33.3774,26.0607 C33.3774,18.3036 29.2911,14.806 22.0189,14.806 L14.2272,14.806 L14.2272,38.562 Z M18.4866,35.2029 L18.4866,18.1651 L21.7765,18.1651 C26.2783,18.1651 28.8756,20.0351 28.8756,26.026 L28.8756,27.1688 C28.8756,32.9173 26.7285,35.2029 22.0881,35.2029 L18.4866,35.2029 Z " fill="#ffffff" fill-opacity="1.00" />				<path d="M64.81,39.2719 L79.1121,39.2719 L79.1121,35.9128 L69.0694,35.9128 L69.0694,15.5159 L64.81,15.5159 L64.81,39.2719 Z " fill="#ffffff" fill-opacity="1.00" />				<path d="M112.882,38.7698 L127.911,38.7698 L127.911,35.4107 L117.142,35.4107 L117.142,28.2077 L125.349,28.2077 L125.349,24.8832 L117.142,24.8832 L117.142,18.3728 L127.704,18.3728 L127.704,15.0138 L112.882,15.0138 L112.882,38.7698 Z " fill="#ffffff" fill-opacity="1.00" />			</g>		</g>	</svg>